<?xml version="1.0" encoding="iso-8859-1"?>
<!-- Generator: Adobe Illustrator 19.0.0, SVG Export Plug-In . SVG Version: 6.00 Build 0)  -->
<svg version="1.1" id="Layer_1" xmlns="http://www.w3.org/2000/svg" xmlns:xlink="http://www.w3.org/1999/xlink" x="0px" y="0px"
	 viewBox="0 0 512 512" style="enable-background:new 0 0 512 512;" xml:space="preserve">
<path style="fill:#91DC5A;" d="M100.174,189.217c0-51.683,25.395-97.437,64.25-125.801C155.293,27.129,122.651,0,83.478,0
	C37.375,0,0,37.374,0,83.478c0,18.069,5.8,34.749,15.556,48.412C5.915,142.712,0,156.921,0,172.522
	c0,33.755,27.468,61.359,61.217,61.359c1.879,0,3.73-0.141,5.565-0.141h33.391V189.217z"/>
<path style="fill:#6DC82A;" d="M411.826,189.217c0-51.683-25.395-97.437-64.25-125.801C356.707,27.129,389.349,0,428.522,0
	C474.626,0,512,37.374,512,83.478c0,18.069-5.8,34.749-15.556,48.412C506.085,142.712,512,156.921,512,172.522
	c0,33.755-27.468,61.359-61.217,61.359c-1.879,0-3.73-0.141-5.565-0.141h-33.391V189.217z"/>
<path style="fill:#E0E0E2;" d="M256.001,0L256.001,0C151.497,0,66.783,84.715,66.783,189.217v133.565
	C66.783,427.285,151.497,512,256,512h0.001c104.501,0,189.216-84.715,189.216-189.217V189.217C445.217,84.715,360.503,0,256.001,0z"
	/>
<path style="fill:#C6C5CA;" d="M445.217,322.783V189.217C445.217,84.715,360.626,0,256,0v512
	C360.626,512,445.217,427.285,445.217,322.783z"/>
<path style="fill:#FF5023;" d="M256,445.217c-67.511,0-122.435-54.924-122.435-122.435c0-9.217,7.479-16.696,16.696-16.696
	s16.696,7.479,16.696,16.696c0,49.097,39.946,89.043,89.043,89.043s89.043-39.946,89.043-89.043c0-9.217,7.479-16.696,16.696-16.696
	c9.217,0,16.696,7.479,16.696,16.696C378.435,390.293,323.511,445.217,256,445.217z"/>
<path style="fill:#CD2A00;" d="M361.739,306.087c-9.217,0-16.696,7.479-16.696,16.696c0,49.097-40.07,89.043-89.043,89.043v33.391
	c67.896,0,122.435-54.924,122.435-122.435C378.435,313.565,370.956,306.087,361.739,306.087z"/>
<path style="fill:#806749;" d="M183.652,133.565c-27.619,0-50.087,22.468-50.087,50.087c0,21.737,14,40.096,33.391,47.01v19.772
	c0,9.22,7.475,16.696,16.696,16.696c9.22,0,16.696-7.475,16.696-16.696v-19.772c19.391-6.914,33.391-25.273,33.391-47.01
	C233.739,156.033,211.271,133.565,183.652,133.565z"/>
<circle style="fill:#FFFFFF;" cx="183.652" cy="183.652" r="16.696"/>
<path style="fill:#5F4D37;" d="M378.435,183.652c0-27.619-22.468-50.087-50.087-50.087s-50.087,22.468-50.087,50.087
	c0,21.737,14,40.096,33.391,47.01v19.772c0,9.22,7.475,16.696,16.696,16.696s16.696-7.475,16.696-16.696v-19.772
	C364.435,223.748,378.435,205.389,378.435,183.652z"/>
<circle style="fill:#FFFFFF;" cx="328.348" cy="183.652" r="16.696"/>
<circle style="fill:#FF5023;" cx="256" cy="311.652" r="44.522"/>
<path style="fill:#CD2A00;" d="M256,267.13v89.043c24.487,0,44.521-19.933,44.521-44.522S280.487,267.132,256,267.13z"/>
<g>
</g>
<g>
</g>
<g>
</g>
<g>
</g>
<g>
</g>
<g>
</g>
<g>
</g>
<g>
</g>
<g>
</g>
<g>
</g>
<g>
</g>
<g>
</g>
<g>
</g>
<g>
</g>
<g>
</g>
</svg>
